<svg width="17" height="30" viewBox="0 0 17 30" fill="none" xmlns="http://www.w3.org/2000/svg">
<path d="M16.5502 14.095L2.61774 0.81997C2.38527 0.598358 2.07641 0.474731 1.75524 0.474731C1.43406 0.474731 1.12521 0.598358 0.892738 0.81997L0.877737 0.83497C0.76465 0.942403 0.674601 1.07172 0.613066 1.21505C0.551533 1.35838 0.5198 1.51274 0.5198 1.66872C0.5198 1.8247 0.551533 1.97906 0.613066 2.12239C0.674601 2.26572 0.76465 2.39504 0.877737 2.50247L13.9977 15.0025L0.877737 27.4975C0.76465 27.6049 0.674601 27.7342 0.613066 27.8776C0.551533 28.0209 0.5198 28.1752 0.5198 28.3312C0.5198 28.4872 0.551533 28.6416 0.613066 28.7849C0.674601 28.9282 0.76465 29.0575 0.877737 29.165L0.892738 29.18C1.12521 29.4016 1.43406 29.5252 1.75524 29.5252C2.07641 29.5252 2.38527 29.4016 2.61774 29.18L16.5502 15.905C16.6728 15.7882 16.7703 15.6478 16.837 15.4923C16.9036 15.3367 16.938 15.1692 16.938 15C16.938 14.8307 16.9036 14.6632 16.837 14.5077C16.7703 14.3521 16.6728 14.2117 16.5502 14.095Z" fill="#02234C"/>
</svg>
