<svg width="40" height="40" viewBox="0 0 40 40" fill="none" xmlns="http://www.w3.org/2000/svg">
<g clip-path="url(#clip0_2196_1302)">
<path d="M6.66665 37.7777C6.37197 37.7777 6.08935 37.6607 5.88098 37.4523C5.67261 37.2439 5.55554 36.9613 5.55554 36.6666V3.33328C5.55554 3.03859 5.67261 2.75598 5.88098 2.5476C6.08935 2.33923 6.37197 2.22217 6.66665 2.22217C6.96134 2.22217 7.24395 2.33923 7.45233 2.5476C7.6607 2.75598 7.77776 3.03859 7.77776 3.33328V36.6666C7.77776 36.9613 7.6607 37.2439 7.45233 37.4523C7.24395 37.6607 6.96134 37.7777 6.66665 37.7777Z" fill="black"/>
<path d="M33.9444 4.24442C33.7755 4.1469 33.5839 4.09556 33.3889 4.09556C33.1938 4.09556 33.0022 4.1469 32.8333 4.24442C30.6794 5.14987 28.3581 5.58913 26.0222 5.53331C24.0097 5.38606 22.0498 4.82229 20.2667 3.87775C18.545 2.96523 16.6539 2.41681 14.7111 2.26664C13.0963 2.24838 11.4943 2.55442 10 3.16664V5.64442C11.4476 4.85236 13.0721 4.43954 14.7222 4.44442C16.3563 4.60653 17.9422 5.08986 19.3889 5.86664C21.4557 6.9459 23.7279 7.57454 26.0556 7.71109C28.1452 7.71837 30.224 7.41122 32.2222 6.79997V21.0555C30.2324 21.7618 28.1336 22.1116 26.0222 22.0889C24.0097 21.9416 22.0498 21.3778 20.2667 20.4333C18.545 19.5208 16.6539 18.9724 14.7111 18.8222C13.0933 18.818 11.4912 19.1392 10 19.7666V22.2222C11.4476 21.4301 13.0721 21.0173 14.7222 21.0222C16.3563 21.1843 17.9422 21.6676 19.3889 22.4444C21.4557 23.5237 23.7279 24.1523 26.0556 24.2889C28.7272 24.3444 31.3797 23.8252 33.8333 22.7666C34.0166 22.6743 34.1707 22.533 34.2785 22.3585C34.3864 22.1839 34.4438 21.9829 34.4444 21.7778V5.18886C34.4472 5.0021 34.4028 4.81766 34.3154 4.65258C34.228 4.48751 34.1004 4.34713 33.9444 4.24442Z" fill="black"/>
</g>
<defs>
<clipPath id="clip0_2196_1302">
<rect width="40" height="40" fill="white"/>
</clipPath>
</defs>
</svg>
