<svg width="34" height="33" viewBox="0 0 34 33" fill="none" xmlns="http://www.w3.org/2000/svg">
<path d="M5.33337 12C5.33337 8.90585 6.56254 5.93839 8.75046 3.75046C10.9384 1.56254 13.9058 0.333374 17 0.333374C20.0942 0.333374 23.0617 1.56254 25.2496 3.75046C27.4375 5.93839 28.6667 8.90585 28.6667 12V13.725C31.4934 14.13 33.6667 16.5617 33.6667 19.5V19.9167C33.6667 22.875 31.115 25.4684 28.1134 25.33C26.88 28.8634 23.7434 31.245 20.3584 31.8484C19.575 32.135 18.6484 32 17.8334 32C17.1703 32 16.5344 31.7366 16.0656 31.2678C15.5968 30.799 15.3334 30.1631 15.3334 29.5C15.3334 28.837 15.5968 28.2011 16.0656 27.7323C16.5344 27.2634 17.1703 27 17.8334 27C19.155 27 20.6184 26.8084 21.5117 28.015C23.6717 26.9867 25.3334 24.815 25.3334 22V12C25.3334 9.7899 24.4554 7.67029 22.8926 6.10748C21.3298 4.54468 19.2102 3.66671 17 3.66671C14.7899 3.66671 12.6703 4.54468 11.1075 6.10748C9.54468 7.67029 8.66671 9.7899 8.66671 12V22.4167C8.66671 23.1903 8.35942 23.9321 7.81244 24.4791C7.26545 25.0261 6.52359 25.3334 5.75004 25.3334C4.31345 25.3334 2.9357 24.7627 1.91988 23.7469C0.904057 22.731 0.333374 21.3533 0.333374 19.9167V19.5C0.333014 18.0971 0.838306 16.741 1.75663 15.6803C2.67496 14.6196 3.94479 13.9255 5.33337 13.725V12Z" fill="black"/>
</svg>
