<svg width="32" height="37" viewBox="0 0 32 37" fill="none" xmlns="http://www.w3.org/2000/svg">
<path d="M19.0834 36.2292L18.9625 31.5H15.9584C11.6153 31.5 7.92573 29.9812 4.88962 26.9437C1.85212 23.9076 0.333374 20.2181 0.333374 15.875C0.333374 11.5319 1.85212 7.84236 4.88962 4.80625C7.92573 1.76875 11.6153 0.25 15.9584 0.25C18.1292 0.25 20.1625 0.656944 22.0584 1.47083C23.9528 2.28333 25.6077 3.39653 27.023 4.81042C28.4368 6.22569 29.55 7.88056 30.3625 9.775C31.1764 11.6708 31.5834 13.7042 31.5834 15.875C31.5834 17.9986 31.2716 20.0382 30.648 21.9937C30.023 23.9479 29.1605 25.7958 28.0605 27.5375C26.9577 29.2792 25.6382 30.8833 24.1021 32.35C22.566 33.8167 20.8931 35.109 19.0834 36.2271M21.1667 32.2292C23.632 30.1458 25.6375 27.7069 27.1834 24.9125C28.7292 22.1181 29.5014 19.1056 29.5 15.875C29.5 12.0903 28.1889 8.8875 25.5667 6.26667C22.9445 3.64583 19.7417 2.33472 15.9584 2.33333C12.1737 2.33333 8.97087 3.64444 6.35004 6.26667C3.72921 8.88889 2.4181 12.0917 2.41671 15.875C2.41671 19.6597 3.72782 22.8632 6.35004 25.4854C8.97226 28.1076 12.175 29.4181 15.9584 29.4167H21.1667V32.2292ZM16.0271 26.4396C16.4577 26.4396 16.8209 26.2917 17.1167 25.9958C17.4125 25.6986 17.5605 25.3354 17.5605 24.9062C17.5605 24.4757 17.4125 24.1125 17.1167 23.8167C16.8195 23.5194 16.4563 23.3708 16.0271 23.3708C15.5966 23.3708 15.2334 23.5194 14.9375 23.8167C14.6403 24.1125 14.4917 24.4757 14.4917 24.9062C14.4917 25.3368 14.6403 25.7 14.9375 25.9958C15.2334 26.2917 15.5966 26.4396 16.0271 26.4396ZM15.1167 20.3458H16.9605C17.0132 19.4917 17.1771 18.816 17.4521 18.3188C17.7271 17.8215 18.3799 17.0576 19.4105 16.0271C20.0091 15.4299 20.4834 14.8194 20.8334 14.1958C21.1834 13.5736 21.3584 12.859 21.3584 12.0521C21.3584 10.5493 20.8396 9.36875 19.8021 8.51042C18.7646 7.65069 17.5098 7.22083 16.0375 7.22083C14.7514 7.22083 13.6612 7.57292 12.7667 8.27708C11.8709 8.98125 11.2146 9.82083 10.798 10.7958L12.5125 11.4604C12.7931 10.8437 13.2028 10.2819 13.7417 9.775C14.282 9.26944 15.0473 9.01667 16.0375 9.01667C17.2167 9.01667 18.0868 9.33681 18.648 9.97708C19.2105 10.6187 19.4917 11.3187 19.4917 12.0771C19.4917 12.7743 19.3112 13.3639 18.95 13.8458C18.5889 14.3278 18.1257 14.8521 17.5605 15.4187C16.5605 16.2993 15.9028 17.091 15.5875 17.7937C15.2737 18.4937 15.1167 19.3444 15.1167 20.3458Z" fill="black"/>
</svg>
