<svg width="28" height="33" viewBox="0 0 28 33" fill="none" xmlns="http://www.w3.org/2000/svg">
<path d="M14 0.199951C11.8783 0.199951 9.84344 1.04281 8.34315 2.5431C6.84285 4.04339 6 6.07822 6 8.19995C6 10.3217 6.84285 12.3565 8.34315 13.8568C9.84344 15.3571 11.8783 16.2 14 16.2C16.1217 16.2 18.1566 15.3571 19.6569 13.8568C21.1571 12.3565 22 10.3217 22 8.19995C22 6.07822 21.1571 4.04339 19.6569 2.5431C18.1566 1.04281 16.1217 0.199951 14 0.199951ZM8 8.19995C8 6.60865 8.63214 5.08253 9.75736 3.95731C10.8826 2.83209 12.4087 2.19995 14 2.19995C15.5913 2.19995 17.1174 2.83209 18.2426 3.95731C19.3679 5.08253 20 6.60865 20 8.19995C20 9.79125 19.3679 11.3174 18.2426 12.4426C17.1174 13.5678 15.5913 14.2 14 14.2C12.4087 14.2 10.8826 13.5678 9.75736 12.4426C8.63214 11.3174 8 9.79125 8 8.19995ZM4.018 18.2C3.49127 18.1978 2.96931 18.2997 2.48205 18.4998C1.99479 18.6998 1.55181 18.9941 1.17852 19.3657C0.805228 19.7374 0.50897 20.179 0.306733 20.6654C0.104496 21.1517 0.000259024 21.6732 0 22.2C0 25.582 1.666 28.132 4.27 29.794C6.834 31.428 10.29 32.2 14 32.2C17.71 32.2 21.166 31.428 23.73 29.794C26.334 28.134 28 25.58 28 22.2C28 21.1391 27.5786 20.1217 26.8284 19.3715C26.0783 18.6214 25.0609 18.2 24 18.2H4.018ZM2 22.2C2 21.094 2.896 20.2 4.018 20.2H24C24.5304 20.2 25.0391 20.4107 25.4142 20.7857C25.7893 21.1608 26 21.6695 26 22.2C26 24.818 24.756 26.768 22.654 28.106C20.514 29.472 17.47 30.2 14 30.2C10.53 30.2 7.486 29.472 5.346 28.106C3.246 26.766 2 24.82 2 22.2Z" fill="black"/>
</svg>
