<svg width="26" height="30" viewBox="0 0 26 30" fill="none" xmlns="http://www.w3.org/2000/svg">
<path d="M0.5 29.1666V21.2252C0.5 20.5135 0.756639 19.9016 1.26992 19.3897C1.78317 18.8778 2.39547 18.6218 3.10683 18.6218H22.8931C23.6044 18.6218 24.2168 18.8785 24.73 19.3917C25.2433 19.905 25.4999 20.5173 25.4999 21.2286V29.1666H0.5ZM8.24037 16.3141C6.09887 16.3141 4.27344 15.5594 2.76408 14.05C1.25469 12.5407 0.5 10.7152 0.5 8.57375C0.5 6.43225 1.25469 4.60682 2.76408 3.09746C4.27344 1.58807 6.09887 0.833374 8.24037 0.833374H17.7595C19.901 0.833374 21.7265 1.58807 23.2358 3.09746C24.7452 4.60682 25.4999 6.43225 25.4999 8.57375C25.4999 10.7152 24.7452 12.5407 23.2358 14.05C21.7265 15.5594 19.901 16.3141 17.7595 16.3141H8.24037ZM2.59396 27.0727H23.406V21.2286C23.406 21.079 23.3579 20.9562 23.2617 20.86C23.1655 20.7638 23.0427 20.7158 22.8931 20.7158H3.10683C2.95725 20.7158 2.83437 20.7638 2.73821 20.86C2.64204 20.9562 2.59396 21.079 2.59396 21.2286V27.0727ZM8.24037 14.2201H17.7595C19.336 14.2201 20.6712 13.6739 21.7651 12.5815C22.859 11.4892 23.406 10.1558 23.406 8.58154C23.406 7.00724 22.859 5.67129 21.7651 4.57371C20.6712 3.47612 19.336 2.92733 17.7595 2.92733H8.24037C6.6639 2.92733 5.32872 3.47353 4.23483 4.56592C3.14092 5.6583 2.59396 6.99165 2.59396 8.56596C2.59396 10.1402 3.14092 11.4762 4.23483 12.5738C5.32872 13.6713 6.6639 14.2201 8.24037 14.2201ZM8.24467 9.81304C8.59008 9.81304 8.88226 9.69213 9.12121 9.45029C9.36018 9.20846 9.47967 8.91483 9.47967 8.56942C9.47967 8.224 9.35875 7.93182 9.11692 7.69288C8.87508 7.4539 8.58146 7.33442 8.23604 7.33442C7.89062 7.33442 7.59844 7.45533 7.3595 7.69717C7.12053 7.939 7.00104 8.23262 7.00104 8.57804C7.00104 8.92346 7.12196 9.21564 7.36379 9.45458C7.60562 9.69355 7.89925 9.81304 8.24467 9.81304ZM17.7639 9.81304C18.1093 9.81304 18.4015 9.69213 18.6404 9.45029C18.8794 9.20846 18.9989 8.91483 18.9989 8.56942C18.9989 8.224 18.878 7.93182 18.6361 7.69288C18.3943 7.4539 18.1007 7.33442 17.7553 7.33442C17.4098 7.33442 17.1177 7.45533 16.8787 7.69717C16.6397 7.939 16.5203 8.23262 16.5203 8.57804C16.5203 8.92346 16.6412 9.21564 16.883 9.45458C17.1248 9.69355 17.4185 9.81304 17.7639 9.81304Z" fill="#1C1B1F"/>
</svg>
