<svg width="17" height="17" viewBox="0 0 17 17" fill="none" xmlns="http://www.w3.org/2000/svg">
<path d="M13.3334 16.9584H3.66669C1.6681 16.9584 0.041687 15.332 0.041687 13.3334V3.66675C0.041687 1.66816 1.6681 0.041748 3.66669 0.041748H9.70835C10.0288 0.041748 10.3362 0.169054 10.5628 0.395661C10.7894 0.622267 10.9167 0.929611 10.9167 1.25008C10.9167 1.57055 10.7894 1.8779 10.5628 2.1045C10.3362 2.33111 10.0288 2.45841 9.70835 2.45841H3.66669C2.99969 2.45841 2.45835 3.00096 2.45835 3.66675V13.3334C2.45835 13.9992 2.99969 14.5417 3.66669 14.5417H13.3334C14.0004 14.5417 14.5417 13.9992 14.5417 13.3334V9.70841C14.5417 9.38794 14.669 9.0806 14.8956 8.85399C15.1222 8.62739 15.4295 8.50008 15.75 8.50008C16.0705 8.50008 16.3778 8.62739 16.6044 8.85399C16.831 9.0806 16.9584 9.38794 16.9584 9.70841V13.3334C16.9584 15.332 15.3319 16.9584 13.3334 16.9584ZM9.90894 11.9233C9.48602 11.9233 9.0764 11.7553 8.7719 11.4508L5.54806 8.22821C5.25808 7.92341 5.09876 7.51732 5.10411 7.09665C5.10946 6.67598 5.27906 6.27407 5.5767 5.97675C5.87434 5.67943 6.27643 5.51025 6.6971 5.50534C7.11777 5.50044 7.5237 5.6602 7.82819 5.9505L9.53919 7.66271L13.7381 1.07125C13.8374 0.879988 13.974 0.710566 14.1398 0.572998C14.3056 0.435429 14.4974 0.332508 14.7037 0.270317C14.91 0.208126 15.1267 0.187928 15.3409 0.210918C15.5552 0.233908 15.7626 0.299619 15.951 0.404166C16.1394 0.508713 16.305 0.649974 16.4378 0.819597C16.5707 0.989221 16.6682 1.18376 16.7246 1.39172C16.781 1.59969 16.7952 1.81684 16.7662 2.03036C16.7372 2.24388 16.6658 2.44942 16.556 2.63483L11.3191 11.0932C11.1981 11.3112 11.0282 11.4981 10.8227 11.6392C10.6172 11.7803 10.3818 11.8718 10.1349 11.9064L9.90894 11.9233Z" fill="#02234C"/>
</svg>
