<svg width="33" height="33" viewBox="0 0 33 33" fill="none" xmlns="http://www.w3.org/2000/svg">
<path d="M4.35261 32.5531L31.7686 18.5764C32.1223 18.3993 32.4168 18.1415 32.6217 17.8294C32.8266 17.5174 32.9346 17.1623 32.9346 16.8008C32.9346 16.4392 32.8266 16.0842 32.6217 15.7721C32.4168 15.4601 32.1223 15.2023 31.7686 15.0251L4.34118 1.07611C3.93614 0.874028 3.47165 0.786639 3.00951 0.82557C2.54737 0.864501 2.10948 1.0279 1.75411 1.29404C1.39874 1.56018 1.14272 1.91644 1.02013 2.31542C0.897545 2.71439 0.914185 3.13718 1.06784 3.52752L6.12886 16.6909V16.7011C6.15565 16.7679 6.15565 16.8409 6.12886 16.9077L1.06784 30.0944C0.911015 30.4855 0.892117 30.91 1.01369 31.311C1.13525 31.712 1.39147 32.0702 1.748 32.3377C2.10452 32.6053 2.5443 32.7693 3.00838 32.8078C3.47245 32.8463 3.93864 32.7574 4.34445 32.5531H4.35261ZM3.01879 31.0022C2.964 30.9641 2.92509 30.9107 2.90823 30.8506C2.89137 30.7905 2.89753 30.7271 2.92573 30.6705L7.91002 17.689H17.5913C17.8511 17.689 18.1002 17.597 18.2839 17.4333C18.4676 17.2696 18.5708 17.0476 18.5708 16.8161C18.5708 16.5845 18.4676 16.3625 18.2839 16.1988C18.1002 16.0351 17.8511 15.9432 17.5913 15.9432L7.92471 15.9432L2.92083 2.9514C2.89526 2.89589 2.89101 2.83441 2.90873 2.77653C2.92644 2.71864 2.96514 2.66759 3.01879 2.63134C3.0664 2.59069 3.12778 2.56523 3.19333 2.55891C3.25889 2.55259 3.32495 2.56578 3.38122 2.59642L30.8152 16.5455C30.8659 16.5703 30.9079 16.607 30.9367 16.6516C30.9655 16.6963 30.9799 16.7471 30.9785 16.7986C30.9788 16.8519 30.9626 16.9042 30.9318 16.9499C30.901 16.9955 30.8567 17.0328 30.8038 17.0576L3.38775 31.0342C3.33092 31.066 3.2639 31.08 3.19715 31.0742C3.13041 31.0684 3.06769 31.0431 3.01879 31.0022Z" fill="black"/>
</svg>
