<svg width="26" height="23" viewBox="0 0 26 23" fill="none" xmlns="http://www.w3.org/2000/svg">
<path d="M1.28914 4.31824L10.8551 20.929C11.0748 21.3026 11.3883 21.6123 11.7645 21.8275C12.1407 22.0427 12.5665 22.1559 12.9999 22.1559C13.4333 22.1559 13.8592 22.0427 14.2354 21.8275C14.6116 21.6123 14.9251 21.3026 15.1448 20.929L24.7107 4.31824C24.9213 3.9578 25.0322 3.54787 25.0322 3.13043C25.0322 2.71299 24.9213 2.30306 24.7107 1.94262C24.4939 1.56642 24.1809 1.25474 23.8037 1.03964C23.4266 0.824532 22.9989 0.71376 22.5648 0.718712L3.43508 0.718712C3.00129 0.714151 2.5741 0.825108 2.19737 1.04019C1.82063 1.25528 1.50792 1.56675 1.29133 1.94262C1.08043 2.30287 0.969095 2.7127 0.96871 3.13013C0.968327 3.54757 1.07891 3.95761 1.28914 4.31824ZM2.42773 2.59996C2.52995 2.4242 2.67717 2.27885 2.85422 2.17888C3.03128 2.07892 3.23178 2.02795 3.43508 2.03121L22.5648 2.03121C22.7681 2.02795 22.9686 2.07892 23.1456 2.17888C23.3227 2.27885 23.4699 2.4242 23.5721 2.59996C23.668 2.7607 23.7186 2.94437 23.7186 3.13152C23.7186 3.31867 23.668 3.50234 23.5721 3.66308L14.0073 20.2739C13.9027 20.4476 13.755 20.5913 13.5785 20.6911C13.402 20.7908 13.2027 20.8433 12.9999 20.8433C12.7972 20.8433 12.5979 20.7908 12.4214 20.6911C12.2449 20.5913 12.0971 20.4476 11.9926 20.2739L2.42664 3.66308C2.33096 3.50224 2.28055 3.31852 2.28075 3.13137C2.28094 2.94422 2.33173 2.76061 2.42773 2.59996Z" fill="black"/>
</svg>
