<svg width="23" height="26" viewBox="0 0 23 26" fill="none" xmlns="http://www.w3.org/2000/svg">
<path d="M4.31837 24.7107L20.9291 15.1448C21.3027 14.9251 21.6124 14.6116 21.8276 14.2354C22.0428 13.8592 22.156 13.4333 22.156 13C22.156 12.5666 22.0428 12.1407 21.8276 11.7645C21.6124 11.3883 21.3027 11.0748 20.9291 10.8551L4.31837 1.28918C3.95792 1.07861 3.54799 0.967651 3.13055 0.967651C2.71311 0.967651 2.30318 1.07861 1.94274 1.28918C1.56654 1.50595 1.25486 1.81901 1.03976 2.19616C0.824654 2.57332 0.713882 3.00096 0.718834 3.43511L0.718834 22.5648C0.714273 22.9986 0.82523 23.4258 1.04032 23.8025C1.2554 24.1792 1.56687 24.492 1.94274 24.7085C2.30299 24.9194 2.71282 25.0308 3.13025 25.0312C3.54769 25.0316 3.95773 24.921 4.31837 24.7107ZM2.60008 23.5721C2.42432 23.4699 2.27897 23.3227 2.17901 23.1457C2.07904 22.9686 2.02807 22.7681 2.03133 22.5648L2.03133 3.43511C2.02807 3.23181 2.07904 3.03131 2.17901 2.85426C2.27897 2.6772 2.42432 2.52999 2.60008 2.42777C2.76083 2.33193 2.9445 2.28133 3.13165 2.28133C3.3188 2.28133 3.50246 2.33193 3.66321 2.42777L20.274 11.9926C20.4477 12.0972 20.5914 12.2449 20.6912 12.4214C20.7909 12.5979 20.8434 12.7972 20.8434 13C20.8434 13.2027 20.7909 13.402 20.6912 13.5785C20.5914 13.755 20.4477 13.9027 20.274 14.0073L3.66321 23.5732C3.50236 23.6689 3.31865 23.7193 3.1315 23.7191C2.94435 23.7189 2.76073 23.6682 2.60008 23.5721Z" fill="black"/>
</svg>
