<svg viewBox="0 0 373 398" fill="none" xmlns="http://www.w3.org/2000/svg">
<mask id="mask0_2410_2" style="mask-type:alpha" maskUnits="userSpaceOnUse" x="5" y="280" width="243" height="68">
<path d="M14.69 313.15C14.69 316.03 17.66 318.28 23.6 319.9C25.82 320.38 27.68 320.89 29.18 321.43C30.74 321.91 32.42 322.66 34.22 323.68C36.08 324.7 37.49 326.05 38.45 327.73C39.41 329.41 39.89 331.39 39.89 333.67C39.89 337.75 38.3 341.02 35.12 343.48C31.94 345.94 27.92 347.17 23.06 347.17C18.74 347.17 14.99 346.24 11.81 344.38C8.69 342.46 6.47 339.88 5.15 336.64L11.9 332.77C12.62 334.93 13.97 336.64 15.95 337.9C17.93 339.16 20.3 339.79 23.06 339.79C25.76 339.79 27.92 339.28 29.54 338.26C31.16 337.24 31.97 335.71 31.97 333.67C31.97 330.61 29 328.39 23.06 327.01C21.08 326.47 19.58 326.05 18.56 325.75C17.54 325.45 16.13 324.91 14.33 324.13C12.59 323.35 11.27 322.54 10.37 321.7C9.47 320.8 8.63 319.63 7.85 318.19C7.13 316.69 6.77 315.04 6.77 313.24C6.77 309.34 8.27 306.13 11.27 303.61C14.33 301.09 18.14 299.83 22.7 299.83C26.36 299.83 29.6 300.67 32.42 302.35C35.3 303.97 37.46 306.25 38.9 309.19L32.33 312.88C30.71 309.04 27.5 307.12 22.7 307.12C20.42 307.12 18.5 307.66 16.94 308.74C15.44 309.82 14.69 311.29 14.69 313.15ZM91.1302 327.1H53.4202C54.2002 331.06 56.0302 334.18 58.9102 336.46C61.7902 338.68 65.3902 339.79 69.7102 339.79C75.6502 339.79 79.9702 337.6 82.6702 333.22L89.3302 337C84.8902 343.78 78.2902 347.17 69.5302 347.17C62.4502 347.17 56.6302 344.95 52.0702 340.51C47.6302 335.95 45.4102 330.28 45.4102 323.5C45.4102 316.66 47.6002 311.02 51.9802 306.58C56.3602 302.08 62.0302 299.83 68.9902 299.83C75.5902 299.83 80.9602 302.17 85.1002 306.85C89.3002 311.41 91.4002 316.99 91.4002 323.59C91.4002 324.73 91.3102 325.9 91.1302 327.1ZM68.9902 307.21C64.8502 307.21 61.3702 308.38 58.5502 310.72C55.7902 313.06 54.0802 316.24 53.4202 320.26H83.4802C82.8202 316.12 81.1702 312.91 78.5302 310.63C75.8902 308.35 72.7102 307.21 68.9902 307.21ZM108.231 346H100.401V280.3H108.231V346ZM143.306 281.83V289.39C135.386 288.73 131.426 292.15 131.426 299.65V301H143.306V308.56H131.426V346H123.596V308.56H116.396V301H123.596V299.65C123.596 293.53 125.306 288.94 128.726 285.88C132.146 282.76 137.006 281.41 143.306 281.83Z" fill="url(#paint0_linear_2410_2)"/>
<path d="M193.14 327.1H155.43C156.21 331.06 158.04 334.18 160.92 336.46C163.8 338.68 167.4 339.79 171.72 339.79C177.66 339.79 181.98 337.6 184.68 333.22L191.34 337C186.9 343.78 180.3 347.17 171.54 347.17C164.46 347.17 158.64 344.95 154.08 340.51C149.64 335.95 147.42 330.28 147.42 323.5C147.42 316.66 149.61 311.02 153.99 306.58C158.37 302.08 164.04 299.83 171 299.83C177.6 299.83 182.97 302.17 187.11 306.85C191.31 311.41 193.41 316.99 193.41 323.59C193.41 324.73 193.32 325.9 193.14 327.1ZM171 307.21C166.86 307.21 163.38 308.38 160.56 310.72C157.8 313.06 156.09 316.24 155.43 320.26H185.49C184.83 316.12 183.18 312.91 180.54 310.63C177.9 308.35 174.72 307.21 171 307.21ZM239.583 308.74V283H247.413V346H239.583V338.26C235.743 344.2 230.073 347.17 222.573 347.17C216.213 347.17 210.843 344.89 206.463 340.33C202.023 335.71 199.803 330.1 199.803 323.5C199.803 316.96 202.023 311.38 206.463 306.76C210.903 302.14 216.273 299.83 222.573 299.83C230.073 299.83 235.743 302.8 239.583 308.74ZM223.563 339.61C228.123 339.61 231.933 338.08 234.993 335.02C238.053 331.84 239.583 328 239.583 323.5C239.583 318.94 238.053 315.13 234.993 312.07C231.933 308.95 228.123 307.39 223.563 307.39C219.063 307.39 215.283 308.95 212.223 312.07C209.163 315.13 207.633 318.94 207.633 323.5C207.633 328 209.163 331.84 212.223 335.02C215.283 338.08 219.063 339.61 223.563 339.61Z" fill="url(#paint1_linear_2410_2)"/>
</mask>
<g mask="url(#mask0_2410_2)">
<rect y="251" width="338" height="228" fill="#D9D9D9"/>
<rect y="251" width="338" height="228" fill="url(#paint2_linear_2410_2)"/>
</g>
<mask id="mask1_2410_2" style="mask-type:alpha" maskUnits="userSpaceOnUse" x="22" y="0" width="186" height="248">
<path d="M78.21 152.73C64.49 152.73 52.73 149.58 42.93 143.28C33.27 136.84 26.48 127.95 22.56 116.61L39.36 106.95C44.96 124.73 58.05 133.62 78.63 133.62C88.57 133.62 96.2 131.59 101.52 127.53C106.98 123.47 109.71 117.94 109.71 110.94C109.71 104.08 107.05 98.83 101.73 95.19C96.97 91.97 88.08 88.26 75.06 84.06L60.99 79.44C57.91 78.18 53.85 76.36 48.81 73.98C43.91 71.46 40.34 68.94 38.1 66.42C31.94 59.7 28.86 51.51 28.86 41.85C28.86 28.97 33.34 18.89 42.3 11.61C51.26 4.04999 62.18 0.269988 75.06 0.269988C86.54 0.269988 96.62 3.13999 105.3 8.87999C113.98 14.62 120.49 22.46 124.83 32.4L108.45 41.85C102.15 26.73 91.02 19.17 75.06 19.17C67.08 19.17 60.64 21.13 55.74 25.05C50.84 28.97 48.39 34.29 48.39 41.01C48.39 47.45 50.7 52.35 55.32 55.71C60.08 59.21 68.06 62.71 79.26 66.21L87.87 68.94C92.63 70.76 95.22 71.74 95.64 71.88C100.12 73.56 105.02 75.87 110.34 78.81C114.12 80.91 117.9 84.13 121.68 88.47C126.58 93.37 129.03 100.72 129.03 110.52C129.03 123.4 124.34 133.69 114.96 141.39C105.44 148.95 93.19 152.73 78.21 152.73Z" fill="url(#paint3_linear_2410_2)"/>
<path d="M139.28 182.9V229.52H207.53V248H119.75V101H206.48V119.48H139.28V164.63H201.23V182.9H139.28Z" fill="url(#paint4_linear_2410_2)"/>
</mask>
<g mask="url(#mask1_2410_2)">
<rect x="-194" y="-104" width="702" height="391" fill="url(#paint5_linear_2410_2)"/>
</g>
<line y1="267" x2="257" y2="267" stroke="url(#paint6_linear_2410_2)" stroke-width="4"/>
<defs>
<linearGradient id="paint0_linear_2410_2" x1="131.5" y1="244" x2="131.5" y2="398" gradientUnits="userSpaceOnUse">
<stop stop-color="#013D42"/>
<stop offset="1" stop-color="#011A50"/>
</linearGradient>
<linearGradient id="paint1_linear_2410_2" x1="258.5" y1="244" x2="258.5" y2="398" gradientUnits="userSpaceOnUse">
<stop stop-color="#013D42"/>
<stop offset="1" stop-color="#299676"/>
</linearGradient>
<linearGradient id="paint2_linear_2410_2" x1="169" y1="251" x2="169" y2="479" gradientUnits="userSpaceOnUse">
<stop stop-color="#2EA081"/>
<stop offset="1" stop-color="#02234C"/>
</linearGradient>
<linearGradient id="paint3_linear_2410_2" x1="70" y1="15" x2="70" y2="169" gradientUnits="userSpaceOnUse">
<stop stop-color="#32B47F"/>
<stop offset="1" stop-color="#011A50"/>
</linearGradient>
<linearGradient id="paint4_linear_2410_2" x1="156.5" y1="113" x2="156.5" y2="267" gradientUnits="userSpaceOnUse">
<stop stop-color="#013D42"/>
<stop offset="1" stop-color="#011A50"/>
</linearGradient>
<linearGradient id="paint5_linear_2410_2" x1="157" y1="-104" x2="157" y2="287" gradientUnits="userSpaceOnUse">
<stop stop-color="#2EA081"/>
<stop offset="1" stop-color="#02234C"/>
</linearGradient>
<linearGradient id="paint6_linear_2410_2" x1="24" y1="269" x2="209" y2="269" gradientUnits="userSpaceOnUse">
<stop offset="0.0781589" stop-color="#2EA081"/>
<stop offset="1" stop-color="#02234C"/>
</linearGradient>
</defs>
</svg>
